# xmcd
#
# Track frame offsets: 
#        150
#        22233
#        41012
#        60997
#        71651
#        95926
#        108704
#        118092
#        132283
#        147887
#        167646
#        188124
#        204018
#        225238
#
# Disc length: 3283 seconds
#
# Revision: 0
# Processed by: cddbd v1.5.2PL0 Copyright (c) Steve Scherf et al.
# Submitted via: ExactAudioCopyFreeDBPlugin 1.0
#
DISCID=c60cd10e
DTITLE=Alvin Lee - SAGUITAR
DYEAR=2007
DGENRE=Blues
TTITLE0=Anytime U Want To
TTITLE1=The Squeeze
TTITLE2=It's time to play
TTITLE3=Midnite Train
TTITLE4=Motel Blues
TTITLE5=Only here for the ride
TTITLE6=Memphis
TTITLE7=Got a lot of living to do
TTITLE8=Blues has a hold on me
TTITLE9=It's all good
TTITLE10=Education
TTITLE11=Rapper
TTITLE12=Smoking rope
TTITLE13=Rocking Rendevous
EXTD=
EXTT0=
EXTT1=
EXTT2=
EXTT3=
EXTT4=
EXTT5=
EXTT6=
EXTT7=
EXTT8=
EXTT9=
EXTT10=
EXTT11=
EXTT12=
EXTT13=
PLAYORDER=
